#!OML:ASF H:\ColoradoDance\Project 1\Capture day 1\Session 8\male.ASF
:FULLY-SPECIFIED
:DEGREES
87
upperback -2.726570 -0.377133 -1.050130
rfoot -20.104300 -33.167400
lradius 26.266001
lthumb 6.012240 414.253998
rradius 25.162399
lwrist -11.959400
rhand -25.740400 -7.010800
rhumerus -44.325001 -6.238340 -80.717003
lowerneck -4.631410 -9.272400 -4.593200
lhand -20.339300 -335.640991
ltibia 0.000000
head 3.550120 -6.215630 2.205620
rwrist 13.974700
lfingers 7.125020
rtoes -14.373300
lowerback 0.019573 -0.114724 -6.109210
rfingers 7.125020
lclavicle 0.000000 -0.000000
upperneck 5.991590 -12.646400 6.193150
rfemur -46.849098 -12.454000 9.402430
thorax -2.800850 -0.100000 2.349830
rclavicle 0.000000 -0.000000
rtibia 31.448299
lfoot -18.791000 2.164330
lhumerus -42.437099 3.053970 79.072197
rthumb 0.796509 -36.989101
root 12.447300 18.194799 9.507890 190.082001 -20.506300 -543.843994
ltoes -13.228400
lfemur 16.774401 -13.919800 -17.190001
88
upperback -2.973230 -0.483641 0.142111
rfoot -15.584600 -25.937099
lradius 22.397699
lthumb 0.893093 414.876007
rradius 23.640301
lwrist -16.134199
rhand -27.035200 -3.757490
rhumerus -46.836300 -4.692650 -82.153801
lowerneck -5.953880 -7.463320 -3.790030
lhand -25.640400 -335.101990
ltibia 27.588301
head 4.702880 -5.120270 0.622008
rwrist 12.989200
lfingers 7.125020
rtoes 7.640400
lowerback 0.575965 -0.288836 -1.505440
rfingers 7.125020
lclavicle 0.000000 -0.000000
upperneck 11.430800 -10.158000 2.053890
rfemur -42.867298 -23.714701 24.754700
thorax -3.364530 -0.225844 1.008020
rclavicle 0.000000 -0.000000
rtibia 54.609200
lfoot 13.296500 -5.367520
lhumerus -48.072498 11.248400 64.273499
rthumb -0.454070 -33.736801
root 14.041700 17.861601 5.059320 181.143005 -17.330601 -539.466980
ltoes -11.237800
lfemur 18.035000 -10.320800 -3.644550
89
upperback -3.232080 0.786017 0.723263
rfoot -25.651400 -22.533199
lradius 21.944901
lthumb 2.559130 416.079010
rradius 34.780499
lwrist -18.263700
rhand -39.110298 -4.036030
rhumerus -46.757000 -3.694300 -81.231201
lowerneck -6.375410 -1.937270 2.941400
lhand -23.915300 -333.885986
ltibia 68.474998
head 4.848580 -1.017540 -0.531515
rwrist 9.246930
lfingers 7.125020
rtoes -0.742545
lowerback 2.537150 0.428314 2.075900
rfingers 7.125020
lclavicle -0.000000 -0.000000
upperneck 12.779200 -2.684930 0.321249
rfemur -27.292400 -10.323300 32.217602
thorax -4.743960 0.366112 -0.470723
rclavicle -0.000000 -0.000000
rtibia 55.913502
lfoot -10.436200 9.338340
lhumerus -43.487801 6.708380 67.044701
rthumb -12.110000 -33.665600
root 15.450800 17.882099 1.673470 178.190994 2.757890 -536.536987
ltoes -3.029130
lfemur -18.553301 -6.164360 0.394560
90
upperback -3.257150 1.304630 -0.203923
rfoot -29.650000 -8.677930
lradius 30.826099
lthumb 6.095510 414.393005
rradius 37.951099
lwrist -7.942500
rhand -32.351799 -4.744450
rhumerus -46.497002 -1.542180 -80.773003
lowerneck -5.151040 5.635570 6.485770
lhand -20.253099 -335.498993
ltibia 25.969601
head 4.582040 3.856830 -0.277077
rwrist 3.171320
lfingers 7.125020
rtoes -9.675050
lowerback 1.985470 0.846633 3.095440
rfingers 7.125020
lclavicle 0.000000 0.000000
upperneck 10.390800 7.030380 1.354840
rfemur -19.412201 10.425900 25.003201
thorax -4.403920 0.562681 -2.021600
rclavicle 0.000000 0.000000
rtibia 57.409698
lfoot -1.176350 2.901900
lhumerus -44.319401 -1.493510 74.062698
rthumb -5.588390 -34.650799
root 15.879300 17.929701 -1.199560 179.389008 43.698299 -542.130005
ltoes -5.477340
lfemur -31.786400 -25.942400 10.232700
91
upperback -2.500210 0.419740 0.001516
rfoot -25.718000 5.669920
lradius 28.114901
lthumb 5.249210 405.807007
rradius 36.198200
lwrist -15.609500
rhand -19.194500 -41.026100
rhumerus -38.664200 -2.619680 -65.390297
lowerneck -3.322290 -9.503040 -3.938250
lhand -21.129601 -344.108002
ltibia 21.858500
head 4.168800 -6.228890 2.910260
rwrist 5.135750
lfingers 7.125020
rtoes -18.540300
lowerback 2.811870 0.315611 -0.294504
rfingers 7.125020
lclavicle -0.000000 -0.000000
upperneck 9.025310 -13.318900 9.770660
rfemur -34.227299 11.044600 5.497630
thorax -4.154130 0.222607 0.139525
rclavicle -0.000000 -0.000000
rtibia 61.993900
lfoot -14.189200 7.324500
lhumerus -48.997299 1.744810 68.335503
rthumb 7.117440 -70.886398
root 15.957000 18.089100 -4.444710 45.708801 80.354897 -683.713989
ltoes -20.877600
lfemur -14.520100 -15.316000 0.360058
